<svg width="68" height="68" viewBox="0 0 68 68" fill="none" xmlns="http://www.w3.org/2000/svg">
<g clip-path="url(#clip0_654_1415)">
<rect x="7" y="7" width="54" height="54" rx="27" fill="white"/>
<path d="M13.75 7C11.9598 7 10.2429 7.71116 8.97703 8.97703C7.71116 10.2429 7 11.9598 7 13.75L7 54.25C7 56.0402 7.71116 57.7571 8.97703 59.023C10.2429 60.2888 11.9598 61 13.75 61H54.25C56.0402 61 57.7571 60.2888 59.023 59.023C60.2888 57.7571 61 56.0402 61 54.25V13.75C61 11.9598 60.2888 10.2429 59.023 8.97703C57.7571 7.71116 56.0402 7 54.25 7H13.75ZM47.6012 23.7737C48.07 24.242 48.3365 24.8755 48.3434 25.538C48.3504 26.2006 48.0972 26.8395 47.6384 27.3175L34.1654 44.1588C33.9338 44.4082 33.6543 44.6083 33.3437 44.7472C33.033 44.8862 32.6975 44.961 32.3572 44.9673C32.017 44.9736 31.6789 44.9112 31.3633 44.7839C31.0477 44.6566 30.761 44.4669 30.5204 44.2262L21.5935 35.296C21.3448 35.0643 21.1453 34.7848 21.007 34.4743C20.8686 34.1638 20.7942 33.8286 20.7883 33.4888C20.7823 33.1489 20.8448 32.8113 20.9721 32.4961C21.0994 32.1809 21.2889 31.8946 21.5292 31.6542C21.7696 31.4139 22.0559 31.2244 22.3711 31.0971C22.6863 30.9698 23.0239 30.9073 23.3638 30.9133C23.7036 30.9192 24.0388 30.9936 24.3493 31.132C24.6598 31.2703 24.9393 31.4698 25.171 31.7185L32.2383 38.7824L43.9596 23.848C44.1907 23.5981 44.4698 23.3975 44.7803 23.2579C45.0907 23.1184 45.4261 23.0429 45.7663 23.036C46.1066 23.0291 46.4448 23.0908 46.7606 23.2176C47.0765 23.3444 47.3635 23.5335 47.6046 23.7737H47.6012Z" fill="#00A255"/>
</g>
<defs>
<clipPath id="clip0_654_1415">
<rect x="7" y="7" width="54" height="54" rx="27" fill="white"/>
</clipPath>
</defs>
</svg>
