<svg width="48" height="48" viewBox="0 0 48 48" fill="none" xmlns="http://www.w3.org/2000/svg">
<path d="M23.8486 24C28.5431 24 32.3486 20.1944 32.3486 15.5C32.3486 10.8056 28.5431 7 23.8486 7C19.1542 7 15.3486 10.8056 15.3486 15.5C15.3486 20.1944 19.1542 24 23.8486 24Z" stroke="#B6B6B8" stroke-width="2.5"/>
<path d="M32.3485 27.4004H32.9469C34.1898 27.4007 35.3897 27.8549 36.3213 28.6776C37.2529 29.5002 37.852 30.6348 38.0061 31.868L38.6708 37.1788C38.7306 37.6572 38.688 38.1429 38.5457 38.6036C38.4035 39.0643 38.1648 39.4894 37.8457 39.8508C37.5266 40.2123 37.1342 40.5017 36.6947 40.6999C36.2552 40.8981 35.7785 41.0005 35.2963 41.0004H12.4007C11.9186 41.0005 11.4419 40.8981 11.0024 40.6999C10.5629 40.5017 10.1705 40.2123 9.85138 39.8508C9.53224 39.4894 9.29363 39.0643 9.15137 38.6036C9.00911 38.1429 8.96645 37.6572 9.02624 37.1788L9.68924 31.868C9.84342 30.6342 10.443 29.4992 11.3754 28.6764C12.3077 27.8537 13.5084 27.3999 14.7518 27.4004H15.3485" stroke="#B6B6B8" stroke-width="2.5" stroke-linecap="round" stroke-linejoin="round"/>
</svg>
