<svg width="48" height="48" viewBox="0 0 48 48" fill="none" xmlns="http://www.w3.org/2000/svg">
<path d="M41.5481 36C43.0481 36 44.2381 35.058 45.3081 33.74C47.5001 31.04 43.9021 28.88 42.5301 27.826C41.1361 26.752 39.5781 26.142 38.0001 26M36.0001 22C37.3261 22 38.5979 21.4732 39.5356 20.5355C40.4733 19.5979 41.0001 18.3261 41.0001 17C41.0001 15.6739 40.4733 14.4021 39.5356 13.4645C38.5979 12.5268 37.3261 12 36.0001 12M6.45205 36C4.95205 36 3.76205 35.058 2.69205 33.74C0.50005 31.04 4.09805 28.88 5.47005 27.826C6.86405 26.752 8.42005 26.14 10.0001 26M11.0001 22C9.67397 22 8.4022 21.4732 7.46452 20.5355C6.52684 19.5979 6.00005 18.3261 6.00005 17C6.00005 15.6739 6.52684 14.4021 7.46452 13.4645C8.4022 12.5268 9.67397 12 11.0001 12M16.1681 30.222C14.1241 31.486 8.76605 34.066 12.0281 37.294C13.6261 38.872 15.4001 40 17.6341 40H30.3701C32.6041 40 34.3781 38.872 35.9721 37.294C39.2361 34.066 33.8781 31.486 31.8341 30.222C29.4797 28.77 26.7681 28.0011 24.0021 28.0011C21.236 28.0011 18.5244 28.77 16.1701 30.222M31.0001 15C31.0001 15.9193 30.819 16.8295 30.4672 17.6788C30.1154 18.5281 29.5998 19.2997 28.9498 19.9497C28.2998 20.5998 27.5281 21.1154 26.6788 21.4672C25.8296 21.8189 24.9193 22 24.0001 22C23.0808 22 22.1705 21.8189 21.3213 21.4672C20.472 21.1154 19.7003 20.5998 19.0503 19.9497C18.4003 19.2997 17.8847 18.5281 17.5329 17.6788C17.1811 16.8295 17.0001 15.9193 17.0001 15C17.0001 13.1435 17.7375 11.363 19.0503 10.0503C20.3631 8.7375 22.1435 8 24.0001 8C25.8566 8 27.637 8.7375 28.9498 10.0503C30.2626 11.363 31.0001 13.1435 31.0001 15Z" stroke="#B6B6B8" stroke-width="2.5" stroke-linecap="round" stroke-linejoin="round"/>
</svg>
