<svg width="174" height="30" viewBox="0 0 174 30" fill="none" xmlns="http://www.w3.org/2000/svg">
<g filter="url(#filter0_i_314_184)">
<rect x="0.5" width="173" height="30" rx="15" fill="#060D15"/>
<rect x="1" y="0.5" width="172" height="29" rx="14.5" stroke="url(#paint0_linear_314_184)"/>
<path d="M14.1119 20V10.06H17.3739C18.2699 10.06 18.9886 10.3167 19.5299 10.83C20.0712 11.3433 20.3419 11.964 20.3419 12.692C20.3419 13.6067 19.9872 14.2833 19.2779 14.722C20.4259 15.142 20.9999 15.9353 20.9999 17.102C20.9999 17.942 20.6919 18.6373 20.0759 19.188C19.4692 19.7293 18.6666 20 17.6679 20H14.1119ZM15.4139 18.824H17.7239C18.3772 18.824 18.8719 18.6747 19.2079 18.376C19.5532 18.068 19.7259 17.6573 19.7259 17.144C19.7259 16.64 19.5532 16.234 19.2079 15.926C18.8719 15.6087 18.3819 15.45 17.7379 15.45H15.4139V18.824ZM15.4139 14.33H17.3739C17.8966 14.33 18.3072 14.19 18.6059 13.91C18.9139 13.6207 19.0679 13.2473 19.0679 12.79C19.0679 12.3513 18.9139 11.9827 18.6059 11.684C18.2979 11.3853 17.8872 11.236 17.3739 11.236H15.4139V14.33ZM25.1989 20.14C24.4336 20.14 23.8129 19.8833 23.3369 19.37C22.8609 18.8473 22.6229 18.1567 22.6229 17.298V13H23.8269V17.116C23.8269 17.704 23.9669 18.1707 24.2469 18.516C24.5362 18.8613 24.9236 19.034 25.4089 19.034C25.9689 19.034 26.4309 18.8053 26.7949 18.348C27.1682 17.8813 27.3549 17.256 27.3549 16.472V13H28.5589V20H27.3549V18.922C26.8976 19.734 26.1789 20.14 25.1989 20.14ZM32.0463 10.886C31.8877 11.0447 31.687 11.124 31.4443 11.124C31.2017 11.124 30.9963 11.0447 30.8283 10.886C30.6603 10.718 30.5763 10.5127 30.5763 10.27C30.5763 10.0367 30.6603 9.836 30.8283 9.668C30.9963 9.5 31.2017 9.416 31.4443 9.416C31.687 9.416 31.8877 9.5 32.0463 9.668C32.205 9.836 32.2843 10.0367 32.2843 10.27C32.2843 10.5127 32.205 10.718 32.0463 10.886ZM30.8283 20V13H32.0323V20H30.8283ZM34.3147 20V9.5H35.5187V20H34.3147ZM40.517 20.07C39.873 20.07 39.355 19.888 38.963 19.524C38.571 19.16 38.375 18.628 38.375 17.928V14.106H36.891V13H38.375V11.054H39.579V13H41.595V14.106H39.579V17.774C39.579 18.2127 39.6723 18.5207 39.859 18.698C40.0457 18.8753 40.3397 18.964 40.741 18.964C41.0957 18.964 41.3803 18.9173 41.595 18.824V19.902C41.259 20.014 40.8997 20.07 40.517 20.07ZM46.9202 20V14.106H45.4362V13H46.9202V11.586C46.9202 10.886 47.1162 10.3493 47.5082 9.976C47.9002 9.60267 48.4182 9.416 49.0622 9.416C49.4449 9.416 49.8089 9.47667 50.1542 9.598V10.662C49.9396 10.5687 49.6502 10.522 49.2862 10.522C48.8849 10.522 48.5909 10.6107 48.4042 10.788C48.2176 10.9653 48.1242 11.2733 48.1242 11.712V13H50.1542V14.106H48.1242V20H46.9202ZM54.4031 20.14C53.3485 20.14 52.4711 19.79 51.7711 19.09C51.0805 18.3807 50.7351 17.5173 50.7351 16.5C50.7351 15.4827 51.0805 14.624 51.7711 13.924C52.4711 13.2147 53.3485 12.86 54.4031 12.86C55.4485 12.86 56.3165 13.2147 57.0071 13.924C57.7071 14.624 58.0571 15.4827 58.0571 16.5C58.0571 17.5173 57.7071 18.3807 57.0071 19.09C56.3165 19.79 55.4485 20.14 54.4031 20.14ZM52.6391 18.292C53.0965 18.7773 53.6845 19.02 54.4031 19.02C55.1218 19.02 55.7051 18.7773 56.1531 18.292C56.6011 17.8067 56.8251 17.2093 56.8251 16.5C56.8251 15.7907 56.6011 15.1933 56.1531 14.708C55.7051 14.2227 55.1218 13.98 54.4031 13.98C53.6845 13.98 53.0965 14.2227 52.6391 14.708C52.1911 15.1933 51.9671 15.7907 51.9671 16.5C51.9671 17.2093 52.1911 17.8067 52.6391 18.292ZM59.7854 20V13H60.9894V14.358C61.12 13.9287 61.372 13.5833 61.7454 13.322C62.128 13.0607 62.5294 12.93 62.9494 12.93C63.1547 12.93 63.3367 12.9487 63.4954 12.986V14.232C63.3274 14.1573 63.108 14.12 62.8374 14.12C62.352 14.12 61.9227 14.33 61.5494 14.75C61.176 15.17 60.9894 15.7627 60.9894 16.528V20H59.7854ZM69.8034 20L66.5694 13H67.9134L70.3074 18.306L72.7014 13H74.0454L70.8114 20H69.8034ZM76.4799 10.886C76.3213 11.0447 76.1206 11.124 75.8779 11.124C75.6353 11.124 75.4299 11.0447 75.2619 10.886C75.0939 10.718 75.0099 10.5127 75.0099 10.27C75.0099 10.0367 75.0939 9.836 75.2619 9.668C75.4299 9.5 75.6353 9.416 75.8779 9.416C76.1206 9.416 76.3213 9.5 76.4799 9.668C76.6386 9.836 76.7179 10.0367 76.7179 10.27C76.7179 10.5127 76.6386 10.718 76.4799 10.886ZM75.2619 20V13H76.4659V20H75.2619ZM81.6323 20.14C80.6616 20.14 79.8449 19.7853 79.1823 19.076C78.5289 18.3667 78.2023 17.508 78.2023 16.5C78.2023 15.492 78.5289 14.6333 79.1823 13.924C79.8449 13.2147 80.6616 12.86 81.6323 12.86C82.1456 12.86 82.6216 12.9767 83.0603 13.21C83.5083 13.434 83.8536 13.7233 84.0963 14.078V9.5H85.3003V20H84.0963V18.922C83.8536 19.2767 83.5083 19.5707 83.0603 19.804C82.6216 20.028 82.1456 20.14 81.6323 20.14ZM81.8143 19.034C82.5049 19.034 83.0743 18.7913 83.5223 18.306C83.9703 17.8207 84.1943 17.2187 84.1943 16.5C84.1943 15.7813 83.9703 15.1793 83.5223 14.694C83.0743 14.2087 82.5049 13.966 81.8143 13.966C81.1143 13.966 80.5403 14.2087 80.0923 14.694C79.6443 15.1793 79.4203 15.7813 79.4203 16.5C79.4203 17.2187 79.6443 17.8207 80.0923 18.306C80.5403 18.7913 81.1143 19.034 81.8143 19.034ZM90.6466 20.14C89.5733 20.14 88.7006 19.7947 88.0286 19.104C87.3566 18.4133 87.0206 17.5453 87.0206 16.5C87.0206 15.464 87.3613 14.6007 88.0426 13.91C88.724 13.21 89.5966 12.86 90.6606 12.86C91.6033 12.86 92.392 13.1773 93.0266 13.812C93.6706 14.4373 93.9926 15.2913 93.9926 16.374C93.9926 16.514 93.988 16.6353 93.9786 16.738H88.2386C88.2573 17.3913 88.4906 17.9373 88.9386 18.376C89.396 18.8147 89.97 19.034 90.6606 19.034C91.6406 19.034 92.3686 18.628 92.8446 17.816L93.7966 18.474C93.1153 19.5847 92.0653 20.14 90.6466 20.14ZM88.3226 15.758H92.7606C92.6673 15.198 92.42 14.7547 92.0186 14.428C91.6266 14.092 91.16 13.924 90.6186 13.924C90.068 13.924 89.5733 14.092 89.1346 14.428C88.7053 14.7547 88.4346 15.198 88.3226 15.758ZM98.8094 20.14C97.7547 20.14 96.8774 19.79 96.1774 19.09C95.4867 18.3807 95.1414 17.5173 95.1414 16.5C95.1414 15.4827 95.4867 14.624 96.1774 13.924C96.8774 13.2147 97.7547 12.86 98.8094 12.86C99.8547 12.86 100.723 13.2147 101.413 13.924C102.113 14.624 102.463 15.4827 102.463 16.5C102.463 17.5173 102.113 18.3807 101.413 19.09C100.723 19.79 99.8547 20.14 98.8094 20.14ZM97.0454 18.292C97.5027 18.7773 98.0907 19.02 98.8094 19.02C99.528 19.02 100.111 18.7773 100.559 18.292C101.007 17.8067 101.231 17.2093 101.231 16.5C101.231 15.7907 101.007 15.1933 100.559 14.708C100.111 14.2227 99.528 13.98 98.8094 13.98C98.0907 13.98 97.5027 14.2227 97.0454 14.708C96.5974 15.1933 96.3734 15.7907 96.3734 16.5C96.3734 17.2093 96.5974 17.8067 97.0454 18.292ZM110.691 20.14C109.636 20.14 108.759 19.79 108.059 19.09C107.368 18.39 107.023 17.5267 107.023 16.5C107.023 15.4733 107.368 14.61 108.059 13.91C108.759 13.21 109.636 12.86 110.691 12.86C111.4 12.86 112.035 13.028 112.595 13.364C113.164 13.7 113.607 14.1573 113.925 14.736L112.875 15.324C112.669 14.9133 112.375 14.5867 111.993 14.344C111.619 14.1013 111.185 13.98 110.691 13.98C109.972 13.98 109.384 14.2227 108.927 14.708C108.469 15.1933 108.241 15.7907 108.241 16.5C108.241 17.2093 108.469 17.8067 108.927 18.292C109.384 18.7773 109.972 19.02 110.691 19.02C111.185 19.02 111.619 18.8987 111.993 18.656C112.375 18.4133 112.669 18.0867 112.875 17.676L113.925 18.264C113.607 18.8427 113.164 19.3 112.595 19.636C112.035 19.972 111.4 20.14 110.691 20.14ZM115.485 20V13H116.689V14.358C116.819 13.9287 117.071 13.5833 117.445 13.322C117.827 13.0607 118.229 12.93 118.649 12.93C118.854 12.93 119.036 12.9487 119.195 12.986V14.232C119.027 14.1573 118.807 14.12 118.537 14.12C118.051 14.12 117.622 14.33 117.249 14.75C116.875 15.17 116.689 15.7627 116.689 16.528V20H115.485ZM123.445 20.14C122.372 20.14 121.499 19.7947 120.827 19.104C120.155 18.4133 119.819 17.5453 119.819 16.5C119.819 15.464 120.16 14.6007 120.841 13.91C121.523 13.21 122.395 12.86 123.459 12.86C124.402 12.86 125.191 13.1773 125.825 13.812C126.469 14.4373 126.791 15.2913 126.791 16.374C126.791 16.514 126.787 16.6353 126.777 16.738H121.037C121.056 17.3913 121.289 17.9373 121.737 18.376C122.195 18.8147 122.769 19.034 123.459 19.034C124.439 19.034 125.167 18.628 125.643 17.816L126.595 18.474C125.914 19.5847 124.864 20.14 123.445 20.14ZM121.121 15.758H125.559C125.466 15.198 125.219 14.7547 124.817 14.428C124.425 14.092 123.959 13.924 123.417 13.924C122.867 13.924 122.372 14.092 121.933 14.428C121.504 14.7547 121.233 15.198 121.121 15.758ZM131.384 20.14C130.414 20.14 129.597 19.7853 128.934 19.076C128.281 18.3667 127.954 17.508 127.954 16.5C127.954 15.492 128.281 14.6333 128.934 13.924C129.597 13.2147 130.414 12.86 131.384 12.86C131.898 12.86 132.374 12.9767 132.812 13.21C133.26 13.434 133.606 13.7233 133.848 14.078V13H135.052V20H133.848V18.922C133.606 19.2767 133.26 19.5707 132.812 19.804C132.374 20.028 131.898 20.14 131.384 20.14ZM131.566 19.034C132.257 19.034 132.826 18.7913 133.274 18.306C133.722 17.8207 133.946 17.2187 133.946 16.5C133.946 15.7813 133.722 15.1793 133.274 14.694C132.826 14.2087 132.257 13.966 131.566 13.966C130.866 13.966 130.292 14.2087 129.844 14.694C129.396 15.1793 129.172 15.7813 129.172 16.5C129.172 17.2187 129.396 17.8207 129.844 18.306C130.292 18.7913 130.866 19.034 131.566 19.034ZM140.035 20.07C139.391 20.07 138.873 19.888 138.481 19.524C138.089 19.16 137.893 18.628 137.893 17.928V14.106H136.409V13H137.893V11.054H139.097V13H141.113V14.106H139.097V17.774C139.097 18.2127 139.19 18.5207 139.377 18.698C139.563 18.8753 139.857 18.964 140.259 18.964C140.613 18.964 140.898 18.9173 141.113 18.824V19.902C140.777 20.014 140.417 20.07 140.035 20.07ZM145.663 20.14C144.608 20.14 143.731 19.79 143.031 19.09C142.34 18.3807 141.995 17.5173 141.995 16.5C141.995 15.4827 142.34 14.624 143.031 13.924C143.731 13.2147 144.608 12.86 145.663 12.86C146.708 12.86 147.576 13.2147 148.267 13.924C148.967 14.624 149.317 15.4827 149.317 16.5C149.317 17.5173 148.967 18.3807 148.267 19.09C147.576 19.79 146.708 20.14 145.663 20.14ZM143.899 18.292C144.356 18.7773 144.944 19.02 145.663 19.02C146.382 19.02 146.965 18.7773 147.413 18.292C147.861 17.8067 148.085 17.2093 148.085 16.5C148.085 15.7907 147.861 15.1933 147.413 14.708C146.965 14.2227 146.382 13.98 145.663 13.98C144.944 13.98 144.356 14.2227 143.899 14.708C143.451 15.1933 143.227 15.7907 143.227 16.5C143.227 17.2093 143.451 17.8067 143.899 18.292ZM151.045 20V13H152.249V14.358C152.38 13.9287 152.632 13.5833 153.005 13.322C153.388 13.0607 153.789 12.93 154.209 12.93C154.414 12.93 154.596 12.9487 154.755 12.986V14.232C154.587 14.1573 154.368 14.12 154.097 14.12C153.612 14.12 153.182 14.33 152.809 14.75C152.436 15.17 152.249 15.7627 152.249 16.528V20H151.045ZM158.149 20.14C157.505 20.14 156.941 20.0047 156.455 19.734C155.97 19.454 155.62 19.048 155.405 18.516L156.385 17.97C156.516 18.3153 156.745 18.586 157.071 18.782C157.398 18.978 157.762 19.076 158.163 19.076C158.509 19.076 158.798 18.992 159.031 18.824C159.265 18.656 159.381 18.4273 159.381 18.138C159.381 17.886 159.288 17.676 159.101 17.508C158.924 17.34 158.611 17.186 158.163 17.046L157.463 16.822C156.297 16.486 155.713 15.8047 155.713 14.778C155.713 14.1993 155.942 13.7373 156.399 13.392C156.866 13.0373 157.44 12.86 158.121 12.86C159.185 12.86 159.955 13.266 160.431 14.078L159.535 14.694C159.153 14.162 158.667 13.896 158.079 13.896C157.762 13.896 157.487 13.9753 157.253 14.134C157.029 14.2833 156.917 14.484 156.917 14.736C156.917 14.9693 156.987 15.17 157.127 15.338C157.277 15.4967 157.538 15.632 157.911 15.744L158.681 15.982C159.951 16.374 160.585 17.06 160.585 18.04C160.585 18.6933 160.357 19.2067 159.899 19.58C159.451 19.9533 158.868 20.14 158.149 20.14Z" fill="url(#paint1_linear_314_184)"/>
</g>
<defs>
<filter id="filter0_i_314_184" x="0.5" y="0" width="173" height="34" filterUnits="userSpaceOnUse" color-interpolation-filters="sRGB">
<feFlood flood-opacity="0" result="BackgroundImageFix"/>
<feBlend mode="normal" in="SourceGraphic" in2="BackgroundImageFix" result="shape"/>
<feColorMatrix in="SourceAlpha" type="matrix" values="0 0 0 0 0 0 0 0 0 0 0 0 0 0 0 0 0 0 127 0" result="hardAlpha"/>
<feOffset dy="4"/>
<feGaussianBlur stdDeviation="2"/>
<feComposite in2="hardAlpha" operator="arithmetic" k2="-1" k3="1"/>
<feColorMatrix type="matrix" values="0 0 0 0 0 0 0 0 0 0 0 0 0 0 0 0 0 0 0.25 0"/>
<feBlend mode="normal" in2="shape" result="effect1_innerShadow_314_184"/>
</filter>
<linearGradient id="paint0_linear_314_184" x1="0.5" y1="15" x2="173.5" y2="15" gradientUnits="userSpaceOnUse">
<stop stop-color="#19212C"/>
<stop offset="1" stop-color="#26384C"/>
</linearGradient>
<linearGradient id="paint1_linear_314_184" x1="12.5" y1="15" x2="161.5" y2="15" gradientUnits="userSpaceOnUse">
<stop stop-color="#94959C"/>
<stop offset="0.501704" stop-color="white"/>
<stop offset="1" stop-color="#93949B"/>
</linearGradient>
</defs>
</svg>
